<mxfile host="Electron" agent="Mozilla/5.0 (Windows NT 10.0; Win64; x64) AppleWebKit/537.36 (KHTML, like Gecko) draw.io/24.7.8 Chrome/128.0.6613.36 Electron/32.0.1 Safari/537.36" version="24.7.8">
  <diagram name="Strona-1" id="EtF1TLQo1R8rT0JA0Cuy">
    <mxGraphModel dx="1373" dy="1251" grid="1" gridSize="10" guides="1" tooltips="1" connect="1" arrows="1" fold="1" page="1" pageScale="1" pageWidth="827" pageHeight="1169" math="0" shadow="0">
      <root>
        <mxCell id="0" />
        <mxCell id="1" parent="0" />
        <mxCell id="RO2Bmb9mMye5NnR2esGR-105" value="&lt;font style=&quot;font-size: 14px;&quot;&gt;uc Wolontariusz&lt;/font&gt;" style="shape=umlFrame;whiteSpace=wrap;html=1;pointerEvents=0;recursiveResize=0;container=1;collapsible=0;width=300;height=35;" vertex="1" parent="1">
          <mxGeometry x="260" y="30" width="960" height="770" as="geometry" />
        </mxCell>
        <mxCell id="RO2Bmb9mMye5NnR2esGR-107" value="" style="swimlane;startSize=0;" vertex="1" parent="RO2Bmb9mMye5NnR2esGR-105">
          <mxGeometry x="210" y="80" width="580" height="620" as="geometry" />
        </mxCell>
        <mxCell id="RO2Bmb9mMye5NnR2esGR-106" value="&lt;b&gt;&lt;font style=&quot;font-size: 18px;&quot;&gt;System koordynacji pomocy humanitarnej&lt;/font&gt;&lt;/b&gt;" style="text;html=1;align=center;verticalAlign=middle;resizable=0;points=[];autosize=1;strokeColor=none;fillColor=none;" vertex="1" parent="RO2Bmb9mMye5NnR2esGR-107">
          <mxGeometry x="95" y="30" width="390" height="40" as="geometry" />
        </mxCell>
        <mxCell id="RO2Bmb9mMye5NnR2esGR-94" value="Zgłoś wykonanie zadania" style="ellipse;whiteSpace=wrap;html=1;" vertex="1" parent="RO2Bmb9mMye5NnR2esGR-107">
          <mxGeometry x="210" y="280" width="120" height="80" as="geometry" />
        </mxCell>
        <mxCell id="RO2Bmb9mMye5NnR2esGR-93" value="Wyświetl przydział zadań" style="ellipse;whiteSpace=wrap;html=1;" vertex="1" parent="RO2Bmb9mMye5NnR2esGR-107">
          <mxGeometry x="210" y="130" width="120" height="80" as="geometry" />
        </mxCell>
        <mxCell id="RO2Bmb9mMye5NnR2esGR-108" value="Otrzymaj ocenę" style="ellipse;whiteSpace=wrap;html=1;" vertex="1" parent="RO2Bmb9mMye5NnR2esGR-107">
          <mxGeometry x="210" y="434.5" width="120" height="80" as="geometry" />
        </mxCell>
        <mxCell id="RO2Bmb9mMye5NnR2esGR-102" value="" style="endArrow=none;html=1;rounded=0;exitX=0;exitY=0.5;exitDx=0;exitDy=0;entryX=1;entryY=0.3333333333333333;entryDx=0;entryDy=0;entryPerimeter=0;" edge="1" parent="RO2Bmb9mMye5NnR2esGR-107" source="RO2Bmb9mMye5NnR2esGR-93" target="RO2Bmb9mMye5NnR2esGR-101">
          <mxGeometry width="50" height="50" relative="1" as="geometry">
            <mxPoint x="31" y="335" as="sourcePoint" />
            <mxPoint x="320" y="146" as="targetPoint" />
          </mxGeometry>
        </mxCell>
        <mxCell id="RO2Bmb9mMye5NnR2esGR-101" value="Wolontariusz" style="shape=umlActor;verticalLabelPosition=bottom;verticalAlign=top;html=1;perimeterSpacing=8;" vertex="1" parent="RO2Bmb9mMye5NnR2esGR-107">
          <mxGeometry x="-150" y="305" width="30" height="60" as="geometry" />
        </mxCell>
        <mxCell id="RO2Bmb9mMye5NnR2esGR-109" value="" style="endArrow=none;html=1;rounded=0;exitX=0;exitY=0.5;exitDx=0;exitDy=0;entryX=1;entryY=0.3333333333333333;entryDx=0;entryDy=0;entryPerimeter=0;" edge="1" parent="RO2Bmb9mMye5NnR2esGR-107" source="RO2Bmb9mMye5NnR2esGR-94" target="RO2Bmb9mMye5NnR2esGR-101">
          <mxGeometry width="50" height="50" relative="1" as="geometry">
            <mxPoint x="96" y="235" as="sourcePoint" />
            <mxPoint x="-102" y="332" as="targetPoint" />
          </mxGeometry>
        </mxCell>
        <mxCell id="RO2Bmb9mMye5NnR2esGR-110" value="" style="endArrow=none;html=1;rounded=0;exitX=0;exitY=0.5;exitDx=0;exitDy=0;entryX=1;entryY=0.3333333333333333;entryDx=0;entryDy=0;entryPerimeter=0;" edge="1" parent="RO2Bmb9mMye5NnR2esGR-107" source="RO2Bmb9mMye5NnR2esGR-108" target="RO2Bmb9mMye5NnR2esGR-101">
          <mxGeometry width="50" height="50" relative="1" as="geometry">
            <mxPoint x="106" y="345" as="sourcePoint" />
            <mxPoint x="-102" y="332" as="targetPoint" />
          </mxGeometry>
        </mxCell>
      </root>
    </mxGraphModel>
  </diagram>
</mxfile>
